<svg id="Calque_1" data-name="Calque 1" xmlns="http://www.w3.org/2000/svg" viewBox="0 0 299.83 339.82"><defs><style>.cls-1{fill:#e0c3fc;}.cls-2{fill:#fff;}</style></defs><path class="cls-1" d="M1110.37,614.62V465.38a20.67,20.67,0,0,0-10.34-17.9L970.79,372.86a20.68,20.68,0,0,0-20.67,0L820.88,447.48a20.67,20.67,0,0,0-10.34,17.9V614.62a20.67,20.67,0,0,0,10.34,17.9l129.24,74.62a20.68,20.68,0,0,0,20.67,0L1100,632.52A20.67,20.67,0,0,0,1110.37,614.62Z" transform="translate(-810.54 -370.09)"/><path class="cls-2" d="M1023.14,509.09V511q0,34.5,0,69a2.31,2.31,0,0,1-1.57,2.53q-25.8,11.37-51.54,22.85c-.44.2-.89.37-1.5.62,0-.49-.1-.88-.1-1.28q0-35,0-70a1.77,1.77,0,0,1,1.2-2q26.14-11.55,52.27-23.18C1022.24,509.45,1022.59,509.32,1023.14,509.09Z" transform="translate(-810.54 -370.09)"/><path class="cls-2" d="M898.14,509.06l8.94,3.94q22,9.79,44.11,19.56a2.38,2.38,0,0,1,1.67,2.64q-.08,34.41,0,68.83v2c-.62-.24-1.11-.41-1.59-.62q-25.83-11.48-51.68-22.92a2.09,2.09,0,0,1-1.45-2.28q.06-34.66,0-69.33Z" transform="translate(-810.54 -370.09)"/><path class="cls-2" d="M1011.61,497.07l-23.47,10.42c-8.76,3.89-17.52,7.8-26.3,11.65a3.1,3.1,0,0,1-2.24.06q-24.45-10.77-48.86-21.66c-.25-.1-.48-.25-.91-.47a11.69,11.69,0,0,1,1.11-.67q24.27-10.78,48.56-21.54a3,3,0,0,1,2.1-.07q24.52,10.83,49,21.74C1010.84,496.63,1011.06,496.77,1011.61,497.07Z" transform="translate(-810.54 -370.09)"/></svg>