<svg id="Calque_1" data-name="Calque 1" xmlns="http://www.w3.org/2000/svg" viewBox="0 0 299.09 338.96"><defs><style>.cls-1{fill:#3a3a3c;}.cls-2{fill:#e0c3fc;}</style></defs><path class="cls-1" d="M1110,614.41V465.59a20.68,20.68,0,0,0-10.34-17.9l-128.87-74.4a20.63,20.63,0,0,0-20.67,0l-128.88,74.4a20.69,20.69,0,0,0-10.33,17.9V614.41a20.69,20.69,0,0,0,10.33,17.9l128.88,74.4a20.63,20.63,0,0,0,20.67,0l128.87-74.4A20.68,20.68,0,0,0,1110,614.41Z" transform="translate(-810.91 -370.52)"/><path class="cls-2" d="M1023,509.16v1.9q0,34.41,0,68.83a2.31,2.31,0,0,1-1.56,2.53Q995.71,593.76,970,605.21c-.44.2-.89.37-1.5.62,0-.49-.1-.88-.1-1.28q0-34.9,0-69.8a1.77,1.77,0,0,1,1.19-2q26.1-11.52,52.15-23.12Z" transform="translate(-810.91 -370.52)"/><path class="cls-2" d="M898.29,509.14c3.12,1.37,6,2.64,8.92,3.93,14.67,6.51,29.32,13,44,19.51a2.39,2.39,0,0,1,1.66,2.63q-.07,34.34,0,68.67v2c-.62-.24-1.11-.41-1.58-.62q-25.77-11.44-51.56-22.87a2.07,2.07,0,0,1-1.44-2.27q0-34.58,0-69.15Z" transform="translate(-810.91 -370.52)"/><path class="cls-2" d="M1011.49,497.17l-23.42,10.4c-8.74,3.88-17.47,7.79-26.23,11.62a3.15,3.15,0,0,1-2.24.07q-24.39-10.75-48.74-21.61c-.25-.11-.48-.25-.9-.48.44-.26.75-.5,1.1-.66q24.21-10.77,48.45-21.49a3,3,0,0,1,2.09-.07q24.46,10.8,48.89,21.69C1010.72,496.74,1010.94,496.88,1011.49,497.17Z" transform="translate(-810.91 -370.52)"/></svg>